<svg width="37" height="25" viewBox="0 0 37 25" fill="none" xmlns="http://www.w3.org/2000/svg">
<path d="M36.1292 2.98629C35.3168 -0.61641 25.11 -0.757692 15.8038 1.48516C6.23275 3.79866 -1.04269 8.42565 0.122796 12.1166C2.04761 18.5097 16.8457 24.9203 22.3376 24.055C28.942 23.172 37.0474 7.31305 36.1292 2.98629ZM17.6933 5.45872C17.6933 5.12318 17.9759 4.84061 18.3114 4.84061H20.3068C20.6424 4.84061 20.9249 5.12318 20.9249 5.45872V7.472C20.9249 7.80754 20.6424 8.09011 20.3068 8.09011H18.2937C17.9582 8.09011 17.6757 7.80754 17.6757 7.472V5.45872H17.6933ZM17.4638 10.333C17.4638 9.9621 17.764 9.66187 18.1348 9.66187H20.3068C20.6777 9.66187 20.9779 9.9621 20.9779 10.333V12.5228C20.9779 12.8937 20.6777 13.1939 20.3068 13.1939H18.1171C17.7463 13.1939 17.4461 12.8937 17.4461 12.5228V10.333H17.4638ZM12.1131 10.121C12.1131 9.71485 12.4487 9.37931 12.8548 9.37931H15.327C15.7332 9.37931 16.0687 9.71485 16.0687 10.121V12.6641C16.0687 13.0703 15.7332 13.4058 15.327 13.4058H12.8548C12.4487 13.4058 12.1131 13.0703 12.1131 12.6641V10.121ZM16.1747 17.8562C16.1747 18.2801 15.8392 18.6156 15.4153 18.6156H12.8725C12.4487 18.6156 12.1131 18.2801 12.1131 17.8562V15.2425C12.1131 14.8187 12.4487 14.4831 12.8725 14.4831H15.3977C15.8215 14.4831 16.157 14.8187 16.157 15.2425V17.8562H16.1747ZM16.1747 7.472C16.1747 7.87818 15.8392 8.21373 15.433 8.21373H12.9431C12.537 8.21373 12.2014 7.87818 12.2014 7.472V4.9819C12.2014 4.57571 12.537 4.24017 12.9431 4.24017H15.4507C15.8568 4.24017 16.1923 4.57571 16.1923 4.9819V7.472H16.1747ZM21.2251 17.7856C21.2251 18.2094 20.8896 18.545 20.4658 18.545H17.9406C17.5167 18.545 17.1812 18.2094 17.1812 17.7856V15.2249C17.1812 14.801 17.5167 14.4655 17.9406 14.4655H20.4658C20.8896 14.4655 21.2251 14.801 21.2251 15.2249V17.7856ZM22.5142 5.74129C22.5142 5.45872 22.7438 5.21148 23.044 5.21148H24.7922C25.0747 5.21148 25.3219 5.44106 25.3219 5.74129V7.48966C25.3219 7.77222 25.0924 8.01946 24.7922 8.01946H23.044C22.7614 8.01946 22.5142 7.78988 22.5142 7.48966V5.74129ZM22.4259 10.4036C22.4259 10.0681 22.6908 9.80315 23.0263 9.80315H24.9864C25.3219 9.80315 25.5868 10.0681 25.5868 10.4036V12.3639C25.5868 12.6994 25.3219 12.9643 24.9864 12.9643H23.0263C22.6908 12.9643 22.4259 12.6994 22.4259 12.3639V10.4036ZM26.3462 17.7856C26.3462 18.1918 26.0106 18.5273 25.6045 18.5273H23.0969C22.6908 18.5273 22.3553 18.1918 22.3553 17.7856V15.2955C22.3553 14.8893 22.6908 14.5538 23.0969 14.5538H25.6045C26.0106 14.5538 26.3462 14.8893 26.3462 15.2955V17.7856Z" fill="#00B2FF"/>
</svg>
