<svg width="29" height="32" viewBox="0 0 29 32" fill="none" xmlns="http://www.w3.org/2000/svg">
<g filter="url(#filter0_d_1_109)">
<circle cx="14.3748" cy="13.4709" r="9.83625" fill="white"/>
<circle cx="14.3748" cy="13.4709" r="8.69983" stroke="#49C8FF" stroke-width="2.27284"/>
</g>
<g clip-path="url(#clip0_1_109)">
<path d="M17.7454 11.7855H15.6389V14.3132H10.162V15.5771H10.5833C10.5833 15.9123 10.7165 16.2338 10.9535 16.4708C11.1905 16.7079 11.512 16.841 11.8472 16.841C12.1824 16.841 12.5039 16.7079 12.7409 16.4708C12.9779 16.2338 13.1111 15.9123 13.1111 15.5771H15.6389C15.6389 15.9123 15.772 16.2338 16.0091 16.4708C16.2461 16.7079 16.5676 16.841 16.9028 16.841C17.238 16.841 17.5594 16.7079 17.7965 16.4708C18.0335 16.2338 18.1666 15.9123 18.1666 15.5771H19.0092V13.4706L17.7454 11.7855ZM11.8472 16.2091C11.6796 16.2091 11.5189 16.1425 11.4004 16.024C11.2818 15.9055 11.2153 15.7447 11.2153 15.5771C11.2153 15.4095 11.2818 15.2488 11.4004 15.1303C11.5189 15.0118 11.6796 14.9452 11.8472 14.9452C12.0148 14.9452 12.1755 15.0118 12.2941 15.1303C12.4126 15.2488 12.4791 15.4095 12.4791 15.5771C12.4791 15.7447 12.4126 15.9055 12.2941 16.024C12.1755 16.1425 12.0148 16.2091 11.8472 16.2091ZM16.9028 16.2091C16.7352 16.2091 16.5744 16.1425 16.4559 16.024C16.3374 15.9055 16.2708 15.7447 16.2708 15.5771C16.2708 15.4095 16.3374 15.2488 16.4559 15.1303C16.5744 15.0118 16.7352 14.9452 16.9028 14.9452C17.0704 14.9452 17.2311 15.0118 17.3496 15.1303C17.4681 15.2488 17.5347 15.4095 17.5347 15.5771C17.5347 15.7447 17.4681 15.9055 17.3496 16.024C17.2311 16.1425 17.0704 16.2091 16.9028 16.2091ZM16.4815 13.4706V12.4174H17.5347L18.3604 13.4706H16.4815ZM16.9028 11.3642H15.2176V13.8919H10.5833L9.98086 11.7855H9.74072V10.9429H14.7963L15.2176 10.5216H16.9028V11.3642Z" fill="url(#paint0_linear_1_109)"/>
</g>
<defs>
<filter id="filter0_d_1_109" x="0.428661" y="3.63461" width="27.8923" height="27.8923" filterUnits="userSpaceOnUse" color-interpolation-filters="sRGB">
<feFlood flood-opacity="0" result="BackgroundImageFix"/>
<feColorMatrix in="SourceAlpha" type="matrix" values="0 0 0 0 0 0 0 0 0 0 0 0 0 0 0 0 0 0 127 0" result="hardAlpha"/>
<feOffset dy="4.10991"/>
<feGaussianBlur stdDeviation="2.05496"/>
<feComposite in2="hardAlpha" operator="out"/>
<feColorMatrix type="matrix" values="0 0 0 0 0 0 0 0 0 0.198333 0 0 0 0 0.583333 0 0 0 0.38 0"/>
<feBlend mode="normal" in2="BackgroundImageFix" result="effect1_dropShadow_1_109"/>
<feBlend mode="normal" in="SourceGraphic" in2="effect1_dropShadow_1_109" result="shape"/>
</filter>
<linearGradient id="paint0_linear_1_109" x1="28.5754" y1="13.2512" x2="9.48563" y2="13.2512" gradientUnits="userSpaceOnUse">
<stop stop-color="#65B2D9"/>
<stop offset="1" stop-color="#0D4487"/>
</linearGradient>
<clipPath id="clip0_1_109">
<rect width="10.1111" height="10.1111" fill="white" transform="translate(9.3194 8.41509)"/>
</clipPath>
</defs>
</svg>
