<svg width="57" height="56" viewBox="0 0 57 56" fill="none" xmlns="http://www.w3.org/2000/svg">
<g filter="url(#filter0_d_1_38)">
<circle cx="28.6866" cy="18.4367" r="18" fill="white"/>
<circle cx="28.6866" cy="18.4367" r="13.1368" stroke="#00B2FF" stroke-width="9.72645"/>
</g>
<g filter="url(#filter1_d_1_38)">
<ellipse cx="28.6862" cy="18.4367" rx="13.6194" ry="13.6194" fill="white"/>
<path d="M39.6162 18.4367C39.6162 24.4732 34.7227 29.3667 28.6862 29.3667C22.6497 29.3667 17.7562 24.4732 17.7562 18.4367C17.7562 12.4003 22.6497 7.50674 28.6862 7.50674C34.7227 7.50674 39.6162 12.4003 39.6162 18.4367Z" stroke="#49C8FF" stroke-width="5.37887"/>
</g>
<path fill-rule="evenodd" clip-rule="evenodd" d="M25.9015 17.904C25.8956 17.8393 25.9025 17.774 25.9219 17.7119C25.9412 17.6498 25.9726 17.5921 26.0142 17.5421C26.0558 17.4922 26.1069 17.4509 26.1645 17.4207C26.2221 17.3905 26.2851 17.3719 26.3498 17.366C26.4146 17.3602 26.4799 17.3671 26.542 17.3865C26.6041 17.4059 26.6617 17.4373 26.7116 17.479C26.7616 17.5206 26.8028 17.5717 26.833 17.6293C26.8632 17.687 26.8817 17.7499 26.8875 17.8147L27.2877 22.1717C27.2936 22.2364 27.2867 22.3017 27.2673 22.3638C27.248 22.4259 27.2166 22.4836 27.175 22.5335C27.1334 22.5835 27.0823 22.6248 27.0247 22.655C26.9671 22.6852 26.9041 22.7038 26.8394 22.7096C26.7746 22.7155 26.7093 22.7086 26.6472 22.6892C26.5852 22.6698 26.5275 22.6384 26.4776 22.5967C26.4276 22.5551 26.3864 22.504 26.3562 22.4463C26.3261 22.3887 26.3075 22.3257 26.3017 22.261L25.9015 17.904ZM28.6804 22.7112C28.8117 22.7112 28.9376 22.659 29.0304 22.5662C29.1232 22.4734 29.1753 22.3475 29.1753 22.2163L29.1864 17.8593C29.1864 17.7943 29.1736 17.73 29.1487 17.6699C29.1238 17.6099 29.0874 17.5553 29.0414 17.5093C28.9955 17.4634 28.9409 17.4269 28.8808 17.4021C28.8208 17.3772 28.7564 17.3644 28.6914 17.3644C28.6264 17.3644 28.5621 17.3772 28.502 17.4021C28.442 17.4269 28.3874 17.4634 28.3415 17.5093C28.2955 17.5553 28.259 17.6099 28.2342 17.6699C28.2093 17.73 28.1965 17.7943 28.1965 17.8593L28.1855 22.2163C28.1855 22.2813 28.1983 22.3456 28.2232 22.4057C28.248 22.4657 28.2845 22.5203 28.3304 22.5663C28.3764 22.6122 28.431 22.6487 28.491 22.6736C28.5511 22.6984 28.6154 22.7112 28.6804 22.7112ZM27.6735 13.9862H29.6983V13.2938H27.6735V13.9862ZM30.5324 22.7093C30.6632 22.7212 30.7933 22.6806 30.8941 22.5965C30.995 22.5124 31.0583 22.3917 31.0701 22.261L31.4703 17.904C31.4762 17.8393 31.4693 17.774 31.4499 17.7119C31.4306 17.6498 31.3992 17.5921 31.3576 17.5421C31.316 17.4922 31.2649 17.4509 31.2073 17.4207C31.1497 17.3905 31.0867 17.3719 31.022 17.366C30.9572 17.3602 30.8919 17.3671 30.8298 17.3865C30.7678 17.4059 30.7101 17.4373 30.6602 17.479C30.6102 17.5206 30.569 17.5717 30.5388 17.6293C30.5087 17.687 30.4901 17.7499 30.4843 17.8147L30.0841 22.1717C30.0783 22.2364 30.0852 22.3017 30.1046 22.3637C30.1239 22.4258 30.1553 22.4834 30.1969 22.5333C30.2386 22.5833 30.2896 22.6245 30.3472 22.6547C30.4048 22.6849 30.4677 22.7035 30.5324 22.7093ZM32.7055 16.5504H24.6663L25.292 23.363C25.3099 23.5417 25.394 23.7073 25.5279 23.827C25.6618 23.9467 25.8357 24.012 26.0153 24.0098H31.3566C31.5361 24.0119 31.7099 23.9466 31.8437 23.8269C31.9776 23.7072 32.0617 23.5417 32.0795 23.363L32.7055 16.5504ZM33.3788 14.5114C33.3788 14.1957 32.9818 13.9862 32.594 13.9862H30.692V13.1714C30.6912 12.9406 30.5992 12.7194 30.4359 12.5562C30.2727 12.3929 30.0515 12.3009 29.8207 12.3001H27.551C27.3202 12.3011 27.0992 12.3932 26.936 12.5564C26.7729 12.7196 26.6808 12.9406 26.6798 13.1714V13.9862H24.7781C24.3903 13.9862 23.9932 14.1985 23.9932 14.5114V15.4549C23.9927 15.4686 23.9951 15.4823 24.0003 15.495C24.0054 15.5078 24.0131 15.5193 24.023 15.5289C24.0328 15.5385 24.0446 15.5459 24.0575 15.5507C24.0704 15.5554 24.0841 15.5575 24.0978 15.5567H33.2742C33.2879 15.5575 33.3017 15.5555 33.3145 15.5507C33.3274 15.5459 33.3392 15.5385 33.349 15.5289C33.3589 15.5193 33.3666 15.5078 33.3718 15.495C33.3769 15.4823 33.3793 15.4686 33.3788 15.4549V14.5114Z" fill="black"/>
<path fill-rule="evenodd" clip-rule="evenodd" d="M25.9015 17.904C25.8956 17.8393 25.9025 17.774 25.9219 17.7119C25.9412 17.6498 25.9726 17.5921 26.0142 17.5421C26.0558 17.4922 26.1069 17.4509 26.1645 17.4207C26.2221 17.3905 26.2851 17.3719 26.3498 17.366C26.4146 17.3602 26.4799 17.3671 26.542 17.3865C26.6041 17.4059 26.6617 17.4373 26.7116 17.479C26.7616 17.5206 26.8028 17.5717 26.833 17.6293C26.8632 17.687 26.8817 17.7499 26.8875 17.8147L27.2877 22.1717C27.2936 22.2364 27.2867 22.3017 27.2673 22.3638C27.248 22.4259 27.2166 22.4836 27.175 22.5335C27.1334 22.5835 27.0823 22.6248 27.0247 22.655C26.9671 22.6852 26.9041 22.7038 26.8394 22.7096C26.7746 22.7155 26.7093 22.7086 26.6472 22.6892C26.5852 22.6698 26.5275 22.6384 26.4776 22.5967C26.4276 22.5551 26.3864 22.504 26.3562 22.4463C26.3261 22.3887 26.3075 22.3257 26.3017 22.261L25.9015 17.904ZM28.6804 22.7112C28.8117 22.7112 28.9376 22.659 29.0304 22.5662C29.1232 22.4734 29.1753 22.3475 29.1753 22.2163L29.1864 17.8593C29.1864 17.7943 29.1736 17.73 29.1487 17.6699C29.1238 17.6099 29.0874 17.5553 29.0414 17.5093C28.9955 17.4634 28.9409 17.4269 28.8808 17.4021C28.8208 17.3772 28.7564 17.3644 28.6914 17.3644C28.6264 17.3644 28.5621 17.3772 28.502 17.4021C28.442 17.4269 28.3874 17.4634 28.3415 17.5093C28.2955 17.5553 28.259 17.6099 28.2342 17.6699C28.2093 17.73 28.1965 17.7943 28.1965 17.8593L28.1855 22.2163C28.1855 22.2813 28.1983 22.3456 28.2232 22.4057C28.248 22.4657 28.2845 22.5203 28.3304 22.5663C28.3764 22.6122 28.431 22.6487 28.491 22.6736C28.5511 22.6984 28.6154 22.7112 28.6804 22.7112ZM27.6735 13.9862H29.6983V13.2938H27.6735V13.9862ZM30.5324 22.7093C30.6632 22.7212 30.7933 22.6806 30.8941 22.5965C30.995 22.5124 31.0583 22.3917 31.0701 22.261L31.4703 17.904C31.4762 17.8393 31.4693 17.774 31.4499 17.7119C31.4306 17.6498 31.3992 17.5921 31.3576 17.5421C31.316 17.4922 31.2649 17.4509 31.2073 17.4207C31.1497 17.3905 31.0867 17.3719 31.022 17.366C30.9572 17.3602 30.8919 17.3671 30.8298 17.3865C30.7678 17.4059 30.7101 17.4373 30.6602 17.479C30.6102 17.5206 30.569 17.5717 30.5388 17.6293C30.5087 17.687 30.4901 17.7499 30.4843 17.8147L30.0841 22.1717C30.0783 22.2364 30.0852 22.3017 30.1046 22.3637C30.1239 22.4258 30.1553 22.4834 30.1969 22.5333C30.2386 22.5833 30.2896 22.6245 30.3472 22.6547C30.4048 22.6849 30.4677 22.7035 30.5324 22.7093ZM32.7055 16.5504H24.6663L25.292 23.363C25.3099 23.5417 25.394 23.7073 25.5279 23.827C25.6618 23.9467 25.8357 24.012 26.0153 24.0098H31.3566C31.5361 24.0119 31.7099 23.9466 31.8437 23.8269C31.9776 23.7072 32.0617 23.5417 32.0795 23.363L32.7055 16.5504ZM33.3788 14.5114C33.3788 14.1957 32.9818 13.9862 32.594 13.9862H30.692V13.1714C30.6912 12.9406 30.5992 12.7194 30.4359 12.5562C30.2727 12.3929 30.0515 12.3009 29.8207 12.3001H27.551C27.3202 12.3011 27.0992 12.3932 26.936 12.5564C26.7729 12.7196 26.6808 12.9406 26.6798 13.1714V13.9862H24.7781C24.3903 13.9862 23.9932 14.1985 23.9932 14.5114V15.4549C23.9927 15.4686 23.9951 15.4823 24.0003 15.495C24.0054 15.5078 24.0131 15.5193 24.023 15.5289C24.0328 15.5385 24.0446 15.5459 24.0575 15.5507C24.0704 15.5554 24.0841 15.5575 24.0978 15.5567H33.2742C33.2879 15.5575 33.3017 15.5555 33.3145 15.5507C33.3274 15.5459 33.3392 15.5385 33.349 15.5289C33.3589 15.5193 33.3666 15.5078 33.3718 15.495C33.3769 15.4823 33.3793 15.4686 33.3788 15.4549V14.5114Z" fill="url(#paint0_linear_1_38)"/>
<defs>
<filter id="filter0_d_1_38" x="0.960196" y="0.436737" width="55.4529" height="55.4529" filterUnits="userSpaceOnUse" color-interpolation-filters="sRGB">
<feFlood flood-opacity="0" result="BackgroundImageFix"/>
<feColorMatrix in="SourceAlpha" type="matrix" values="0 0 0 0 0 0 0 0 0 0 0 0 0 0 0 0 0 0 127 0" result="hardAlpha"/>
<feOffset dy="9.72645"/>
<feGaussianBlur stdDeviation="4.86322"/>
<feComposite in2="hardAlpha" operator="out"/>
<feColorMatrix type="matrix" values="0 0 0 0 0 0 0 0 0 0.198333 0 0 0 0 0.583333 0 0 0 0.38 0"/>
<feBlend mode="normal" in2="BackgroundImageFix" result="effect1_dropShadow_1_38"/>
<feBlend mode="normal" in="SourceGraphic" in2="effect1_dropShadow_1_38" result="shape"/>
</filter>
<filter id="filter1_d_1_38" x="5.34032" y="4.81731" width="46.6917" height="46.6917" filterUnits="userSpaceOnUse" color-interpolation-filters="sRGB">
<feFlood flood-opacity="0" result="BackgroundImageFix"/>
<feColorMatrix in="SourceAlpha" type="matrix" values="0 0 0 0 0 0 0 0 0 0 0 0 0 0 0 0 0 0 127 0" result="hardAlpha"/>
<feOffset dy="9.72645"/>
<feGaussianBlur stdDeviation="4.86322"/>
<feComposite in2="hardAlpha" operator="out"/>
<feColorMatrix type="matrix" values="0 0 0 0 0 0 0 0 0 0.198333 0 0 0 0 0.583333 0 0 0 0.38 0"/>
<feBlend mode="normal" in2="BackgroundImageFix" result="effect1_dropShadow_1_38"/>
<feBlend mode="normal" in="SourceGraphic" in2="effect1_dropShadow_1_38" result="shape"/>
</filter>
<linearGradient id="paint0_linear_1_38" x1="43.0661" y1="17.3581" x2="23.7348" y2="17.3581" gradientUnits="userSpaceOnUse">
<stop stop-color="#65B2D9"/>
<stop offset="1" stop-color="#0D4487"/>
</linearGradient>
</defs>
</svg>
